<?xml version="1.0" encoding="UTF-8" standalone="no"?>
<!-- Generator: Adobe Illustrator 15.0.0, SVG Export Plug-In . SVG Version: 6.00 Build 0)  -->

<svg
   xmlns:dc="http://purl.org/dc/elements/1.1/"
   xmlns:cc="http://creativecommons.org/ns#"
   xmlns:rdf="http://www.w3.org/1999/02/22-rdf-syntax-ns#"
   xmlns:svg="http://www.w3.org/2000/svg"
   xmlns="http://www.w3.org/2000/svg"
   xmlns:sodipodi="http://sodipodi.sourceforge.net/DTD/sodipodi-0.dtd"
   xmlns:inkscape="http://www.inkscape.org/namespaces/inkscape"
   version="1.1"
   id="Ebene_1"
   x="0px"
   y="0px"
   width="615"
   height="326"
   viewBox="0 0 614.99999 325.99998"
   enable-background="new 0 0 841.89 595.28"
   xml:space="preserve"
   inkscape:version="0.48.5 r10040"
   sodipodi:docname="OUTPOST_logo.svg"><metadata
     id="metadata35"><rdf:RDF><cc:Work
         rdf:about=""><dc:format>image/svg+xml</dc:format><dc:type
           rdf:resource="http://purl.org/dc/dcmitype/StillImage" /></cc:Work></rdf:RDF></metadata><defs
     id="defs33" /><sodipodi:namedview
     pagecolor="#ffffff"
     bordercolor="#666666"
     borderopacity="1"
     objecttolerance="10"
     gridtolerance="10"
     guidetolerance="10"
     inkscape:pageopacity="0"
     inkscape:pageshadow="2"
     inkscape:window-width="640"
     inkscape:window-height="480"
     id="namedview31"
     showgrid="false"
     fit-margin-top="10"
     fit-margin-left="10"
     fit-margin-right="10"
     fit-margin-bottom="10"
     inkscape:zoom="0.49218374"
     inkscape:cx="327.37464"
     inkscape:cy="114.87407"
     inkscape:window-x="0"
     inkscape:window-y="33"
     inkscape:window-maximized="0"
     inkscape:current-layer="Ebene_1" /><g
     id="g3"
     transform="translate(-114.36626,-134.71901)"><g
       id="g5"><path
         d="m 210.115,146.744 c -11.016,2.201 -21.13,5.383 -30.375,10.003 -9.241,4.575 -17.581,10.48 -24.798,17.543 -7.212,7.071 -13.331,15.245 -18.124,24.375 -4.826,9.135 -8.258,19.165 -10.736,30.124 -2.835,-10.934 -2.038,-22.853 1.516,-33.943 3.584,-11.105 10.025,-21.402 18.483,-29.633 8.429,-8.25 18.885,-14.429 30.069,-17.743 11.172,-3.286 23.102,-3.799 33.965,-0.726 z"
         id="path7"
         inkscape:connector-curvature="0"
         style="fill:#203b47" /><path
         d="m 214.561,172.199 c -8.302,2.31 -15.688,5.039 -22.404,8.669 -6.707,3.599 -12.719,8.008 -17.995,13.172 -5.271,5.172 -9.832,11.059 -13.591,17.681 -3.782,6.632 -6.692,13.94 -9.215,22.184 -2.791,-8.224 -2.515,-17.421 0,-26.006 2.543,-8.594 7.43,-16.604 13.946,-22.934 6.491,-6.354 14.617,-11.034 23.271,-13.371 8.637,-2.31 17.835,-2.366 25.988,0.605 z"
         id="path9"
         inkscape:connector-curvature="0"
         style="fill:#203b47" /><path
         d="m 213.969,197.56 c -4.964,2.463 -8.88,4.602 -12.466,7.018 -3.554,2.379 -6.664,4.912 -9.523,7.718 -2.848,2.81 -5.463,5.846 -7.923,9.34 -2.499,3.507 -4.741,7.426 -7.336,12.285 -2.716,-4.84 -3.11,-10.644 -1.881,-16.104 1.246,-5.47 4.188,-10.627 8.282,-14.598 4.069,-3.995 9.296,-6.8 14.796,-7.916 5.461,-1.09 11.31,-0.564 16.051,2.257 z"
         id="path11"
         inkscape:connector-curvature="0"
         style="fill:#203b47" /></g><g
       id="g13"><path
         d="m 242.127,309.527 c 0,-20.469 10.781,-32.164 30.518,-32.164 19.735,0 30.519,11.695 30.519,32.164 v 66.513 c 0,20.469 -10.784,32.164 -30.519,32.164 -19.737,0 -30.518,-11.695 -30.518,-32.164 v -66.513 z m 20.102,67.794 c 0,9.138 4.019,12.608 10.416,12.608 6.395,0 10.417,-3.471 10.417,-12.608 v -69.075 c 0,-9.138 -4.022,-12.607 -10.417,-12.607 -6.396,0 -10.416,3.47 -10.416,12.607 v 69.075 z"
         id="path15"
         inkscape:connector-curvature="0"
         style="fill:#203b47" /><path
         d="m 335.317,278.826 v 98.677 c 0,9.138 4.02,12.427 10.417,12.427 6.397,0 10.417,-3.289 10.417,-12.427 v -98.677 h 19.003 v 97.398 c 0,20.466 -10.233,32.164 -29.968,32.164 -19.737,0 -29.97,-11.698 -29.97,-32.164 v -97.398 h 20.101 z"
         id="path17"
         inkscape:connector-curvature="0"
         style="fill:#203b47" /><path
         d="m 383.005,278.826 h 62.132 v 18.275 H 424.12 v 109.64 h -20.099 v -109.64 h -21.016 v -18.275 z"
         id="path19"
         inkscape:connector-curvature="0"
         style="fill:#203b47" /><path
         d="m 513.469,310.439 v 16.629 c 0,20.467 -9.869,31.613 -29.968,31.613 h -9.502 v 48.06 h -20.1 V 278.826 h 29.602 c 20.099,0 29.968,11.148 29.968,31.613 z m -39.47,-13.338 v 43.306 h 9.502 c 6.394,0 9.868,-2.925 9.868,-12.06 V 309.16 c 0,-9.137 -3.475,-12.059 -9.868,-12.059 h -9.502 z"
         id="path21"
         inkscape:connector-curvature="0"
         style="fill:#203b47" /><path
         d="m 521.142,309.527 c 0,-20.469 10.78,-32.164 30.513,-32.164 19.737,0 30.519,11.695 30.519,32.164 v 66.513 c 0,20.469 -10.781,32.164 -30.519,32.164 -19.732,0 -30.513,-11.695 -30.513,-32.164 v -66.513 z m 20.098,67.794 c 0,9.138 4.021,12.608 10.414,12.608 6.399,0 10.418,-3.471 10.418,-12.608 v -69.075 c 0,-9.138 -4.019,-12.607 -10.418,-12.607 -6.394,0 -10.414,3.47 -10.414,12.607 v 69.075 z"
         id="path23"
         inkscape:connector-curvature="0"
         style="fill:#203b47" /><path
         d="m 622.188,277.363 c 19.549,0 29.602,11.695 29.602,32.164 v 4.02 h -19.005 v -5.301 c 0,-9.138 -3.653,-12.607 -10.051,-12.607 -6.396,0 -10.048,3.47 -10.048,12.607 0,26.314 39.286,31.249 39.286,67.794 0,20.469 -10.235,32.164 -29.968,32.164 -19.738,0 -29.968,-11.695 -29.968,-32.164 v -7.856 h 19.004 v 9.138 c 0,9.138 4.019,12.425 10.414,12.425 6.398,0 10.419,-3.287 10.419,-12.425 0,-26.314 -39.291,-31.249 -39.291,-67.794 0,-20.469 10.051,-32.165 29.606,-32.165 z"
         id="path25"
         inkscape:connector-curvature="0"
         style="fill:#203b47" /><path
         d="m 657.627,278.826 h 62.132 v 18.275 h -21.016 v 109.64 h -20.101 v -109.64 h -21.016 v -18.275 z"
         id="path27"
         inkscape:connector-curvature="0"
         style="fill:#203b47" /></g><path
       d="m 310.061,202.025 c -15.717,0 -30.821,2.618 -44.907,7.434 -20.009,-7.301 -44.522,-4.183 -61.21,9.419 -18.649,15.2 -25.294,39.652 -18.735,61.331 -8.891,18.298 -13.881,38.84 -13.881,60.55 0,44.778 21.221,84.595 54.148,109.96 -18.037,-23.413 -28.77,-52.742 -28.77,-84.582 0,-76.62 62.112,-138.733 138.734,-138.733 31.839,0 61.167,10.734 84.58,28.771 -25.367,-32.928 -65.181,-54.15 -109.959,-54.15 z m -105.914,58.859 c -7.068,-8.674 -3.606,-23.199 7.737,-32.445 11.338,-9.243 28.117,-9.994 35.188,-1.317 7.07,8.675 -35.854,42.44 -42.925,33.762 z"
       id="path29"
       inkscape:connector-curvature="0"
       style="fill:#203b47" /></g></svg>